<svg width="107" height="102" viewBox="0 0 107 102" fill="none" xmlns="http://www.w3.org/2000/svg">
<g filter="url(#filter0_ddi_1_159)">
<circle cx="59" cy="48" r="32" fill="url(#paint0_linear_1_159)"/>
</g>
<g filter="url(#filter1_bd_1_159)">
<path fill-rule="evenodd" clip-rule="evenodd" d="M20 21C20 17.134 23.134 14 27 14C30.866 14 34 17.134 34 21V57.6085C39.3285 60.2051 43 65.6738 43 72C43 80.8366 35.8366 88 27 88C18.1634 88 11 80.8366 11 72C11 65.6738 14.6715 60.2051 20 57.6085V41.5H25C25.8284 41.5 26.5 40.8284 26.5 40C26.5 39.1716 25.8284 38.5 25 38.5H20V35.5H25C25.8284 35.5 26.5 34.8284 26.5 34C26.5 33.1716 25.8284 32.5 25 32.5H20V29.5H25C25.8284 29.5 26.5 28.8284 26.5 28C26.5 27.1716 25.8284 26.5 25 26.5H20V21Z" fill="url(#paint1_linear_1_159)" shape-rendering="crispEdges"/>
</g>
<defs>
<filter id="filter0_ddi_1_159" x="11" y="0" width="96" height="96" filterUnits="userSpaceOnUse" color-interpolation-filters="sRGB">
<feFlood flood-opacity="0" result="BackgroundImageFix"/>
<feColorMatrix in="SourceAlpha" type="matrix" values="0 0 0 0 0 0 0 0 0 0 0 0 0 0 0 0 0 0 127 0" result="hardAlpha"/>
<feOffset/>
<feGaussianBlur stdDeviation="8"/>
<feComposite in2="hardAlpha" operator="out"/>
<feColorMatrix type="matrix" values="0 0 0 0 0.992157 0 0 0 0 0.773882 0 0 0 0 0 0 0 0 1 0"/>
<feBlend mode="normal" in2="BackgroundImageFix" result="effect1_dropShadow_1_159"/>
<feColorMatrix in="SourceAlpha" type="matrix" values="0 0 0 0 0 0 0 0 0 0 0 0 0 0 0 0 0 0 127 0" result="hardAlpha"/>
<feOffset/>
<feGaussianBlur stdDeviation="5.5"/>
<feComposite in2="hardAlpha" operator="out"/>
<feColorMatrix type="matrix" values="0 0 0 0 0.992157 0 0 0 0 0.772549 0 0 0 0 0 0 0 0 0.45 0"/>
<feBlend mode="normal" in2="effect1_dropShadow_1_159" result="effect2_dropShadow_1_159"/>
<feBlend mode="normal" in="SourceGraphic" in2="effect2_dropShadow_1_159" result="shape"/>
<feColorMatrix in="SourceAlpha" type="matrix" values="0 0 0 0 0 0 0 0 0 0 0 0 0 0 0 0 0 0 127 0" result="hardAlpha"/>
<feOffset dx="-1" dy="3"/>
<feGaussianBlur stdDeviation="2.5"/>
<feComposite in2="hardAlpha" operator="arithmetic" k2="-1" k3="1"/>
<feColorMatrix type="matrix" values="0 0 0 0 1 0 0 0 0 0.9 0 0 0 0 0 0 0 0 0.35 0"/>
<feBlend mode="normal" in2="shape" result="effect3_innerShadow_1_159"/>
</filter>
<filter id="filter1_bd_1_159" x="0" y="0" width="60" height="102" filterUnits="userSpaceOnUse" color-interpolation-filters="sRGB">
<feFlood flood-opacity="0" result="BackgroundImageFix"/>
<feGaussianBlur in="BackgroundImageFix" stdDeviation="3.5"/>
<feComposite in2="SourceAlpha" operator="in" result="effect1_backgroundBlur_1_159"/>
<feColorMatrix in="SourceAlpha" type="matrix" values="0 0 0 0 0 0 0 0 0 0 0 0 0 0 0 0 0 0 127 0" result="hardAlpha"/>
<feOffset dx="3"/>
<feGaussianBlur stdDeviation="7"/>
<feComposite in2="hardAlpha" operator="out"/>
<feColorMatrix type="matrix" values="0 0 0 0 0 0 0 0 0 0 0 0 0 0 0 0 0 0 0.15 0"/>
<feBlend mode="normal" in2="effect1_backgroundBlur_1_159" result="effect2_dropShadow_1_159"/>
<feBlend mode="normal" in="SourceGraphic" in2="effect2_dropShadow_1_159" result="shape"/>
</filter>
<linearGradient id="paint0_linear_1_159" x1="59" y1="16" x2="59" y2="80" gradientUnits="userSpaceOnUse">
<stop stop-color="#FDC500"/>
<stop offset="1" stop-color="#FD8900"/>
</linearGradient>
<linearGradient id="paint1_linear_1_159" x1="23" y1="88" x2="33" y2="19" gradientUnits="userSpaceOnUse">
<stop stop-color="#B70000"/>
<stop offset="1" stop-color="#FF5151" stop-opacity="0.7"/>
</linearGradient>
</defs>
</svg>
