<svg width="25" height="24" viewBox="0 0 25 24" fill="none" xmlns="http://www.w3.org/2000/svg">
<path d="M4.43281 10.3756H12.1101C13.0389 10.3822 13.9375 10.0457 14.6334 9.43043C15.3293 8.81518 15.7736 7.96458 15.8808 7.04196C15.9842 6.00574 15.6408 4.9745 14.9366 4.20722C14.2375 3.43966 13.2479 3.00146 12.2097 2.99971H10.1381C9.8049 2.99971 9.49701 3.17757 9.33038 3.46606C9.16377 3.75468 9.16377 4.11026 9.33038 4.39887C9.49699 4.68736 9.8049 4.86523 10.1381 4.86523H12.2097C12.7347 4.8659 13.234 5.09291 13.58 5.48786C13.9258 5.88283 14.0849 6.40767 14.0163 6.92827C13.9476 7.37491 13.7191 7.7814 13.3732 8.07214C13.0274 8.36303 12.5877 8.51826 12.1359 8.50928H4.43264C4.09942 8.50928 3.79153 8.687 3.6249 8.97564C3.45827 9.26427 3.45829 9.61969 3.6249 9.90831C3.79151 10.1969 4.09942 10.3747 4.43264 10.3747L4.43281 10.3756Z" fill="white"/>
<path d="M21.4834 16.5292C21.3762 15.6065 20.9321 14.7561 20.2363 14.141C19.5404 13.5257 18.642 13.189 17.7132 13.1956H11.3001C10.9668 13.1956 10.659 13.3733 10.4923 13.6619C10.3257 13.9505 10.3257 14.3061 10.4923 14.5946C10.6589 14.8832 10.9668 15.0609 11.3001 15.0609H17.7386C18.1903 15.052 18.63 15.2073 18.9758 15.4981C19.3218 15.789 19.5502 16.1955 19.6189 16.642C19.6875 17.1625 19.5285 17.6874 19.1826 18.0824C18.8366 18.4774 18.3374 18.7043 17.8124 18.7051H15.74C15.4067 18.7051 15.0989 18.8828 14.9322 19.1715C14.7656 19.46 14.7656 19.8155 14.9322 20.1042C15.0988 20.3928 15.4067 20.5705 15.74 20.5705H17.8114C18.8501 20.5696 19.8405 20.1316 20.54 19.364C21.2439 18.5965 21.587 17.5653 21.4832 16.5292L21.4834 16.5292Z" fill="white"/>
<path d="M9.24479 14.1292C9.24466 13.8816 9.14635 13.6445 8.97157 13.4694C8.79666 13.2944 8.55946 13.1958 8.31212 13.1955H4.43269C4.09948 13.1955 3.79158 13.3733 3.62496 13.6619C3.45835 13.9505 3.45835 14.3061 3.62496 14.5946C3.79156 14.8832 4.09947 15.0609 4.43269 15.0609H8.31212C8.55922 15.0607 8.79613 14.9624 8.97092 14.7877C9.14571 14.6131 9.24427 14.3763 9.24481 14.1292L9.24479 14.1292Z" fill="white"/>
<path d="M16.2052 10.978C16.2848 10.978 16.3611 10.9464 16.4173 10.8901L17.0495 10.2579H17.0494C17.9182 10.4302 18.8143 10.1412 19.4188 9.49389C20.0234 8.84661 20.2505 7.93296 20.0194 7.07794C19.9918 6.97401 19.9106 6.89285 19.8067 6.86526C18.9517 6.63423 18.038 6.86138 17.3907 7.46581C16.7435 8.07037 16.4544 8.9665 16.6267 9.83527L15.9931 10.4655C15.9074 10.5514 15.8817 10.6804 15.9281 10.7925C15.9746 10.9046 16.0839 10.9776 16.2052 10.9777L16.2052 10.978Z" fill="white"/>
<path d="M9.73133 16.3241L9.09917 15.692C8.98145 15.5783 8.79435 15.58 8.67862 15.6957C8.56289 15.8114 8.56129 15.9985 8.675 16.1163L9.30676 16.7484V16.7483C9.14403 17.5849 9.40573 18.4477 10.0057 19.053C10.6297 19.6704 12.0245 20.1947 12.6997 19.503H12.6999C12.9306 18.6482 12.7036 17.735 12.0996 17.0878C11.4954 16.4405 10.5998 16.1514 9.73132 16.3229L9.73133 16.3241Z" fill="white"/>
</svg>
